# xmcd
#
# Track frame offsets:
#	150
#	11312
#	36336
#	56116
#	84016
#	104216
#	133445
#	155672
#	175077
#	195915
#	217039
#	233621
#	280955
#	304962
#	324372
#
# Disc length: 4742 seconds
#
# Revision: 1
# Processed by: cddbd v1.5.1PL2 Copyright (c) Steve Scherf et al.
# Submitted via: EasyCDDAExtractor 9.0.0.1
#
DISCID=d112840f
DTITLE=Uriah Heep - Stadthalle Tuttlingen 13-12-03
DYEAR=2003
DGENRE=Hard Rock
TTITLE0=Easy Livin
TTITLE1=Shadows Of Grief
TTITLE2=Cry Freedom
TTITLE3=Pilgrim
TTITLE4=The Other Side Of Midnight
TTITLE5=Stealin'
TTITLE6=Wise Man
TTITLE7=The Wizard
TTITLE8=Devil's Daughter
TTITLE9=Sunrise
TTITLE10=Gypsy
TTITLE11=July Morning
TTITLE12=Bird Of Prey
TTITLE13=Bad Bad Man
TTITLE14=Lady In Black
EXTD=
EXTT0=
EXTT1=
EXTT2=
EXTT3=
EXTT4=
EXTT5=
EXTT6=
EXTT7=
EXTT8=
EXTT9=
EXTT10=
EXTT11=
EXTT12=
EXTT13=
EXTT14=
PLAYORDER=
